<svg xmlns="http://www.w3.org/2000/svg" viewBox="0 0 1163 968"><defs><style>.a,.b{fill:#ae8016}.a{fill-rule:evenodd}</style></defs><title>mean-mule-distilling-co</title><path class="a" d="M878 551.12c-.54 1.83-1.18 3.63-1.6 5.48a4.69 4.69 0 0 0 .47 3.49 2.35 2.35 0 0 0 1.05.82 1.65 1.65 0 0 0 1.88-.6c.11-.21.38-.38.4-.59a12.48 12.48 0 0 1 4.1-8.13 8.81 8.81 0 0 0 2.49-5.08c.27-1.66.63-3.31.79-5 .33-3.58.65-7.15 2-10.54.62-1.51-.06-3.39 1.22-4.77.4-.44.81-.57 1.24-.24a3.47 3.47 0 0 1 1 .94 58.31 58.31 0 0 1 7.47 26.1c.06 1.68.11 3.36 0 5a15.55 15.55 0 0 1-3.89 9.84 19.93 19.93 0 0 0-2.33 2.72 2.67 2.67 0 0 0 .13 2 2 2 0 0 0 2.5.67 14.81 14.81 0 0 0 5.6-6.41c.82-1.72 1.33-3.59 2.08-5.34a11.86 11.86 0 0 1 1.49-2.4 2.37 2.37 0 0 1 3.23.12c2 2.51 2 5.72-.21 7.81-2.59 2.49-5.29 4.87-7.93 7.3-.35.32-.87.63-1 1a2.83 2.83 0 0 0 .08 2 2.47 2.47 0 0 0 1.81.85 3.34 3.34 0 0 0 2-.76c1.85-1.51 3.63-3.12 5.42-4.7a42.44 42.44 0 0 1 3.22-2.84 3.2 3.2 0 0 1 2-.37 2.39 2.39 0 0 1 1.65 3.33c-.52.79-1.08 1.86-1.85 2.12-3.93 1.34-7 4.09-10.56 6-1.24.68-2.84.69-3.77 1.93a1.91 1.91 0 0 0-.26 1.34 1.61 1.61 0 0 0 .71 1.09 5.19 5.19 0 0 0 2.05.41 8.51 8.51 0 0 0 4.68-1.69c2.18-1.48 4.3-3.06 6.32-4.74a3 3 0 0 1 3.93-.35c2.63 1.91 5.62 2.62 8.69 3.2a24.41 24.41 0 0 1 6.85 2.11 18.14 18.14 0 0 1 3.08 1.83c3.91 3.16 7.77 6.4 11.63 9.62a7.75 7.75 0 0 1 1.48 1.55 1.5 1.5 0 0 1 .15 1.28c-.17.34-.8.74-1.1.66a20.06 20.06 0 0 1-4-1.46c-3-1.58-5.93-3.18-8.72-5-4.89-3.23-9.88-3.2-15.07-1l-7.45 3.13a4.87 4.87 0 0 0 .55 1.8c1.38 1.65 2.93 3.15 4.32 4.79a2.58 2.58 0 0 1 .19 2.72c-.22.57-.59.67-1.17.52-1.29-.33-1.78-1.52-2.62-2.33a12.16 12.16 0 0 0-9.84-3.5 7.55 7.55 0 0 0-2.65.95c-.35.18-.56.74-.71 1.16s.58 1.59 1.1 1.66c1.19.16 2.37.33 3.56.43a10.31 10.31 0 0 1 6.83 3.57 1.78 1.78 0 0 1-.55 2.9 2.36 2.36 0 0 1-2-.11c-2.44-2.29-5.57-2.66-8.61-3.24a3.18 3.18 0 0 0-3.48 2 35.15 35.15 0 0 1-5.39 8.47 40.17 40.17 0 0 0-5.65 9.16 65.88 65.88 0 0 1-6.39 11.25 179.44 179.44 0 0 1-15.65 20.63 169.07 169.07 0 0 1-14.89 14.6c-2.28 2-4.77 3.18-7.86 2.86-.71-.07-1.44 0-2.16 0a4.86 4.86 0 0 1-4.85-3.57 17.86 17.86 0 0 1-.69-3.51 5 5 0 0 1 1.19-4c1.11-1.26 2.28-2.47 3.29-3.81a7.27 7.27 0 0 0 1.35-5.45c-.6-4.76-3.37-6.08-7.63-3.93a7.49 7.49 0 0 0-4.24 4.65 2.3 2.3 0 0 0-.07 1.39 3.93 3.93 0 0 0 1.23 1.64 1.47 1.47 0 0 0 1.94-.31c.95-1 1.37-2.55 2.89-3 .22-.07.59-.09.69 0a2.33 2.33 0 0 1 .62 1.15 2.17 2.17 0 0 1-.4 1.32 25.91 25.91 0 0 1-5.45 5.59 6.85 6.85 0 0 1-3.57-5.26 13.23 13.23 0 0 1-.13-2.15c-.1-2.85.78-5.34 3.44-6.6a5.77 5.77 0 0 0 3.28-4.4c.62-2.81 1.22-5.63 1.7-8.46.75-4.37.56-8.56-2.25-12.35-2.65-3.58-3.67-7.89-4.06-12.16-.49-5.39 1.87-9.82 6.41-12.87a35.44 35.44 0 0 1 4.53-2.17 2 2 0 0 0 .86-2.45 2.31 2.31 0 0 0-2.38-1.23c-.47.1-.95.15-1.4.29a16.92 16.92 0 0 0-8.17 5.64c-1.2 1.48-2.26 3.07-3.23 4.41-1.57 1-3 .45-4.43.54-2.39.16-4.79.19-7.18.4a15.77 15.77 0 0 0-8 3 63.94 63.94 0 0 1-10.5 6.22c-.41.19-.69.65-1 1a1.87 1.87 0 0 0 .28 2.55 4.05 4.05 0 0 0 1.3.57 1.75 1.75 0 0 1 1.62 2 28 28 0 0 0 2.22 15.48 91.47 91.47 0 0 1 5.45 20.83 42.76 42.76 0 0 0 5.66 16.17c5.93 9.51 8.83 20.14 11.53 30.86.76 3 1.62 6 2.43 9a35.25 35.25 0 0 0 3.8 8.51 190.76 190.76 0 0 1 10 19.13c1.83 4.19 3.6 8.37 4 13a24.66 24.66 0 0 0 .51 2.83c1.35 6.35 4.28 11.67 9.84 15.32 1.2.79 2.27 1.78 3.47 2.57a25.42 25.42 0 0 1 9.18 10.84c.82 1.73 1.73 3.42 2.54 5.16a2.27 2.27 0 0 1-1.51 3.36 33.89 33.89 0 0 1-12.17.09c-4.75-.8-8.27-3.6-11.14-7.32a1 1 0 0 1-.17-.69 12.76 12.76 0 0 1 .34-1.37c2.85-.19 5.71-.3 8.55-.6a15 15 0 0 0 3.4-1 2 2 0 0 0 1.07-2.37 1.65 1.65 0 0 0-1.66-1c-1.67.07-3.34.24-5 .41a24.09 24.09 0 0 1-9.26-.82c-2.31-.68-4.23-3.18-3.64-5.51 1.1-4.3-.22-8-2.07-11.68a21.6 21.6 0 0 0-2.47-3.52 35.78 35.78 0 0 0-2.43-2.65A40.3 40.3 0 0 1 819 734.61a160.68 160.68 0 0 0-4.16-16 92.74 92.74 0 0 0-5-12.7c-2.13-4.29-3.75-8.8-6-13.06-4.15-7.89-9.38-15.06-14.5-22.29a99.86 99.86 0 0 0-6.53-7.66 11.55 11.55 0 0 1-2.89-7.17c-.19-3.11-.76-6.19-1.2-9.28a11.27 11.27 0 0 0-2-5.32 1.74 1.74 0 0 0-1.9-.59 1.82 1.82 0 0 0-1.35 1.49 2.86 2.86 0 0 0 0 1.41 79.87 79.87 0 0 1 2.51 19.2 32.6 32.6 0 0 0 2.53 11.87c1.7 4.21 3.11 8.55 4.48 12.89a33.81 33.81 0 0 1 1.28 6.34c.59 5.24 1.26 10.49 1.47 15.75a52.89 52.89 0 0 0 2.26 12.7c.8 2.76 1.78 5.48 2.8 8.16a156.78 156.78 0 0 1 7.16 24.11 47.66 47.66 0 0 1 1.09 7.81 62.38 62.38 0 0 0 .48 6.45c.52 3.61 1.64 6.91 4.44 9.58a78.15 78.15 0 0 1 5.53 6.62c4.88 5.82 7.63 12.7 9.76 19.86a3 3 0 0 1-2.09 3.94 32.8 32.8 0 0 1-18.46-.14 12.85 12.85 0 0 1-8.72-7.92c-1-2.44-.81-5.22-2.35-7.51-.28-.42 0-1.38.27-2 1.82-4.18 1.4-8.45.55-12.71a11.28 11.28 0 0 0-2.75-5c-1.55-1.83-3.09-3.67-4.64-5.5a16.11 16.11 0 0 1-3.73-9.17c-1-9.79-2-19.56-3-29.34-.53-5.31-1.65-10.38-4.8-14.87a32.94 32.94 0 0 1-5.08-12.6c-1-4.93-2-9.87-2.73-14.85a15 15 0 0 0-4.25-8.9 71.6 71.6 0 0 1-7.45-8.76c-4.6-6.37-7-13.6-8.37-21.23-.59-3.3-1.06-6.63-1.36-10-.26-2.86-.25-5.75-.24-8.62a14.18 14.18 0 0 0-1.69-6.91 11.87 11.87 0 0 0-5.64-5.34 3.89 3.89 0 0 0-2.07-.42 2.83 2.83 0 0 0-1.68 1.1 1.42 1.42 0 0 0 .35 1.92c.93.75 2 1.37 2.89 2.12a9.3 9.3 0 0 1 3.12 4.72c.48 1.62-.31 3.12-1.83 3.12a64.68 64.68 0 0 1-21.92-3.41 99 99 0 0 1-25.34-13.44 75.28 75.28 0 0 1-17.76-18.71A93.81 93.81 0 0 1 657 572.07a47.86 47.86 0 0 0-2.43-6 9.18 9.18 0 0 0-8-5.29 15 15 0 0 0-9.62 2.28q-3.61 2.36-7.37 4.5c-2.08 1.19-4.21 2.31-6.39 3.29a23 23 0 0 1-8.36 1.91c-7.92.4-15.83 0-23.74-.26a57 57 0 0 0-8.61.13c-6.44.77-11.21 4.07-13.72 10.17s-4 12.29-2 18.91a13.28 13.28 0 0 1-.37 8.49 19.2 19.2 0 0 1-1.22 3.38 23.24 23.24 0 0 0-3.17 10.91 8.12 8.12 0 0 1-4.54 6.91 22.47 22.47 0 0 1-12.35 3.22 2.67 2.67 0 0 1-2.28-2.38 14 14 0 0 1 .68-5.67 12.51 12.51 0 0 0 .48-3.5 1.37 1.37 0 0 0-.74-1.09 3.19 3.19 0 0 0-2 .21 3.9 3.9 0 0 0-1.28 1.67c-1.52 3.09-1.59 6.47-1.68 9.69-.47.44-.77 1-1.16 1-5.42 1-10.84 2-16.15 3.54a17.23 17.23 0 0 1-2.12.37 2.14 2.14 0 0 1-2.12-1.49c-1.56-7.8 1.18-14.59 7.62-18.7a32.81 32.81 0 0 1 4.44-2.35 41.83 41.83 0 0 1 4-1.33c3.14 1.55 6.16 3 9.13 4.53 5.61 2.9 8.67 1.6 12.16-3.49a24.94 24.94 0 0 0 4-13.65 22.89 22.89 0 0 0-4-13.6c-.68-1-1.48-1.9-2.11-2.92-1.25-2-2.5-4.1-3.61-6.22a10.23 10.23 0 0 1-.67-8.37 27.49 27.49 0 0 1 1-2.71 11.06 11.06 0 0 0 .88-7 12.71 12.71 0 0 1 .7-7.06 2.87 2.87 0 0 1 2.92-1.63 35.1 35.1 0 0 1 3.49.82c12.11 3.71 24.54 4.2 37.06 3.66a45.74 45.74 0 0 0 7.83-1c5.15-1.13 10.3-2.31 15.35-3.81 9.6-2.86 17.85-8.15 25.14-14.93 2.63-2.45 5-5.14 7.45-7.79a5.74 5.74 0 0 0 1.3-2.49 2.91 2.91 0 0 0-.61-1.91 1.54 1.54 0 0 0-2-.18 16.34 16.34 0 0 0-2.09 1.92A78.53 78.53 0 0 1 633 539.08a52.54 52.54 0 0 1-17.86 9.08c-4.83 1.38-9.75 2.49-14.64 3.68a20.85 20.85 0 0 1-3.54.6c-9.83.64-19.66.78-29.41-1-1.65-.3-3.3-.63-4.92-1-11.1-2.79-11.16-2.82-20.26-10.17-4.88-3.94-10-7.49-15.91-9.71a35.06 35.06 0 0 0-7.58-2.16 101.18 101.18 0 0 0-26.55.37 30.14 30.14 0 0 0-9.59 2.93c-1.93 1-3.93 1.79-5.88 2.71a29.83 29.83 0 0 1-14 2.89c-4.07-.14-8.14-.45-12.19-.92a30.2 30.2 0 0 0-7.88-.15c-1.18.17-2.39.17-3.59.27a37.84 37.84 0 0 1-17-2.12 29.71 29.71 0 0 0-9.84-1.95 22.65 22.65 0 0 1-4.2-.84c-.46-.1-.87-1.42-.65-1.87a21.44 21.44 0 0 1 7.89-8.22 26.23 26.23 0 0 1 22.06-3.39 23.92 23.92 0 0 1 5.82 2.77 53.78 53.78 0 0 0 6.37 3.29 12.19 12.19 0 0 0 11.71-.73 30.2 30.2 0 0 0 4.73-3.24c2.86-2.58 6.28-3.38 9.93-3.56 1.67-.08 3.35.24 5 .26 2.15 0 4.31 0 6.45-.14a11 11 0 0 0 6-2.31 53.52 53.52 0 0 0 4.48-3.6 15.42 15.42 0 0 1 6.2-3.49c4.14-1.26 8.26-2.5 12.66-2.39a15.09 15.09 0 0 1 6.28 1.34q3.89 1.86 7.86 3.57a33.85 33.85 0 0 0 12.55 2.79 27.1 27.1 0 0 0 15.06-4 61.6 61.6 0 0 0 10.7-8.47q8.09-7.68 16-15.53a53.78 53.78 0 0 1 9.48-7.69c2.86-1.77 5.66-3.62 8.55-5.32a37.41 37.41 0 0 1 9.85-4.31c.93-.23 1.83-.58 2.74-.88 3.62-1.22 3.89-4.38 2-6.9-3.12-4.17-7.15-7.06-12.54-7.59a22.33 22.33 0 0 0-9.92 1.12 61.67 61.67 0 0 0-14 7.21c-3.16 2.17-6.37 4.28-9.46 6.56-6.37 4.71-13.67 5.63-21.21 5a50.07 50.07 0 0 1-17.21-4.92 18.76 18.76 0 0 1-9.3-9.62 38.27 38.27 0 0 1-3-20.4 23.21 23.21 0 0 1 2-6.87 36.33 36.33 0 0 1 10.42-13.55A53.07 53.07 0 0 1 553 407a101 101 0 0 1 34.22-3.12 41.22 41.22 0 0 1 6.35 1.17c6.07 1.41 12.1 3 18.2 4.28a63.16 63.16 0 0 0 17.92.68c5-.39 7.6-6.41 5.83-10.3a8.61 8.61 0 0 0-7.05-5.42 17.44 17.44 0 0 1-2.76-.49c-.22-.07-.44-.84-.32-1.16a4.78 4.78 0 0 1 1.13-1.78 8.56 8.56 0 0 1 5.12-2.39 3.79 3.79 0 0 0 2.77-1.16c-.21-.77-.38-1.7-.71-2.57-1.59-4.26-.93-8.54 0-12.77a14.67 14.67 0 0 1 2.14-4.51 6.41 6.41 0 0 1 2.24-1.67c.7-.41 2.13.51 2.11 1.33A9.9 9.9 0 0 1 640 370c-1.65 5-.44 9.46 2.38 13.64.94 1.39 1.94 2.74 2.93 4.1 3.36 4.58 5.37 9.6 5.17 15.38a13.2 13.2 0 0 0 .5 2.78c.09.5 1.25 1 1.8.75a2.56 2.56 0 0 0 1.78-2.06 21.07 21.07 0 0 0-1.69-11.94c-.51-1.08-1.1-2.12-1.51-3.24a1.44 1.44 0 0 1 .51-1.18 1.48 1.48 0 0 1 1.27-.31 4 4 0 0 1 1.62 1.35 19.34 19.34 0 0 1 2.9 13.08 63.35 63.35 0 0 1-1.84 7.67 7.29 7.29 0 0 1-1.29 2.56c-4 4.95-8.61 9-15 10.65-6.52 1.74-12.86.9-19.1-1.18a97.58 97.58 0 0 1-10.75-4.1c-5.23-2.46-10.75-4.12-16.17-6a36.26 36.26 0 0 0-8.44-1.71 77.67 77.67 0 0 0-22.23.68 83.73 83.73 0 0 0-9.86 2 47.35 47.35 0 0 0-16.35 8.85c-3.9 3.29-7.11 7.09-8.65 12.12a26.36 26.36 0 0 0 1.63 20.26 17.3 17.3 0 0 0 9.44 8.47 41.82 41.82 0 0 0 21.94 2.2c2.91-.46 5.38-2 7.82-3.54s4.72-3.29 7.15-4.83c3.85-2.43 7.78-4.75 11.65-7.15 7.71-4.77 15.84-5 24.21-2.2a38.75 38.75 0 0 1 15.67 9.85 13.27 13.27 0 0 0 2.06 2 5.1 5.1 0 0 0 2.61 1c2.63 0 5.27-.25 7.88-.54a50.45 50.45 0 0 1 11.48-.42 77.45 77.45 0 0 1 30.48 10.2c9.53 5.58 18.86 11.5 26.79 19.32 2.39 2.36 4.73 4.77 7.11 7.14a189.62 189.62 0 0 0 15.22 14.24c4.14 3.31 8.57 6.15 12.93 9.1 5.1 3.45 10.83 5.07 16.81 6 3.79.56 7.6 1 11.41 1.38a8.9 8.9 0 0 0 2.13-.22c.75-.1 1.47-1.31 1.39-2.23a1.62 1.62 0 0 0-1.34-1.48 102.21 102.21 0 0 0-13.5-1.88c-.36 0-.71-.49-1-.82a.65.65 0 0 1 0-.63 24 24 0 0 1 8.46-5.1 2.7 2.7 0 0 1 1.34.25c.62.19.58.67-.18 1.85-.26.4-.79.73-.84 1.14a2.88 2.88 0 0 0 .31 2 2.31 2.31 0 0 0 1.93.64 9.42 9.42 0 0 0 3.21-1.48c1.34-1 2.46-2.28 3.75-3.34a4.91 4.91 0 0 1 3.27-1.31 2 2 0 0 1 1.29.41 1.22 1.22 0 0 1-.12 1.19c-1.24 1.11-2.58 2.11-3.86 3.18a1.57 1.57 0 0 0-.49 1.91 2.09 2.09 0 0 0 2.29 1.33 13.5 13.5 0 0 0 3.23-1.48c1.53-1.14 2.87-2.54 4.32-3.8a19.57 19.57 0 0 1 10.21-4.95 3.06 3.06 0 0 1 1.41.07 3.17 3.17 0 0 1 1.06.85c.41.43.3.85-.08 1.3a14.21 14.21 0 0 1-4.66 3.28 15.05 15.05 0 0 0-2.44 1.45 1.39 1.39 0 0 0-.38 1.27c.27.6.76 1.39 1.29 1.51a6.27 6.27 0 0 0 2.79-.16 14.89 14.89 0 0 0 6.09-3.71 44.43 44.43 0 0 1 9.12-5.7 9 9 0 0 1 3.46-.74 4.14 4.14 0 0 1 2 .62 2 2 0 0 1 .4 3.08c-1.8 1.69-4 2.51-6.24 3.45a11.29 11.29 0 0 0-2.51 1.29 1.63 1.63 0 0 0-.55 1.93 1.73 1.73 0 0 0 1.6 1.15 8.42 8.42 0 0 0 4.87-1c2.53-1.37 5-2.76 7.57-4.14a27.4 27.4 0 0 1 8-3.18 8.3 8.3 0 0 1 2.85-.09 4.23 4.23 0 0 1 1.8 1.05 1.64 1.64 0 0 1-.32 2.46c-1.73.76-3.79.7-5.28 2.09a2 2 0 0 0-.54 1.94 1.52 1.52 0 0 0 1.55 1.25c3.1-.21 6.2-.49 9.28-.91a12.32 12.32 0 0 0 3.35-1.19c.86-.4 1.61-1 2.44-1.49a2.47 2.47 0 0 1 2.6.71 2.19 2.19 0 0 1 .06 2.64 8.65 8.65 0 0 1-2.14 1.8 22.72 22.72 0 0 1-2.66 1c-.73.3-.79 1.91-.16 2.52a3.69 3.69 0 0 0 3.3 1c2.82-.53 5.61-1.24 8.41-1.85a39.15 39.15 0 0 1 4.92-1 4.47 4.47 0 0 1 3.77 1.75c.46.53.38 1.59-.24 1.78a35.38 35.38 0 0 1-4.11 1.13c-1.41.24-2.87.13-4.28.34a1.56 1.56 0 0 0-1.41 1.39 2.26 2.26 0 0 0 1.41 2.21 28.6 28.6 0 0 0 3.55.42c3.18.09 6.11-1.13 9.12-1.9 1.62-.41 3.16-1.13 4.78-1.54 2.69-.69 5.16 1.47 5.2 4.44a2.44 2.44 0 0 1-1.43 2.26 16.94 16.94 0 0 1-9.2.8 6.91 6.91 0 0 0-2.09.12c-.69.08-1.22 1.9-.75 2.48a4.79 4.79 0 0 0 3 1.83 20.76 20.76 0 0 0 7.16-.2c1.88-.35 3.76-.63 5.65-.91.8-.12 1.83.88 1.91 1.8.21 2.36-.47 4.23-2.83 5.19l.13.19c-1.93-3.25-3.12-3.85-6-2.83a1.57 1.57 0 0 0-1.13 1.55c0 .7.2 1.46.94 1.67 1.52.44 3.08.75 4.63 1.11zm1 55.88s-.25-.49-.76-1.57a3.8 3.8 0 0 0-4.81-1.94 5.36 5.36 0 0 0-2.59 8.67c.73.94 1.56 1.79 2.28 2.6a30 30 0 0 0-.6 4.28c0 .55.71 1.16 1.18 1.65a1.53 1.53 0 0 0 1.93-.27c2.09-2.89 4.25-5.74 6.25-8.7a13.51 13.51 0 0 0 2.48-8.11c-.12-3.41-1.55-6.44-3-9.42a1.43 1.43 0 0 0-1.19-.65 2.49 2.49 0 0 0-2 3.18 42.78 42.78 0 0 0 1.24 4.1 7.31 7.31 0 0 1 .06 4.91A11.4 11.4 0 0 0 879 607M647.72 403.33a13.19 13.19 0 0 0-5.2-11.24 4.7 4.7 0 0 0-3.28-1.17 2.32 2.32 0 0 0-1.23.56 1.61 1.61 0 0 0-.24 1.93 15.38 15.38 0 0 0 2 2c4.86 3.57 5 11.78-.3 16.31a13.28 13.28 0 0 1-10.56 3.45c-2.59-.32-5.13-1-7.69-1.57-1.86-.41-3.71-.89-5.57-1.29a6.27 6.27 0 0 0-1.42 0 2.2 2.2 0 0 0-1.83 1.89 1.58 1.58 0 0 0 1.16 1.61 79.39 79.39 0 0 0 14.54 3.65 18.18 18.18 0 0 0 8.46-1 16.49 16.49 0 0 0 11.16-15.13zm237 164.16a13.78 13.78 0 0 0 .67 2.81 2.46 2.46 0 0 0 1.64 1.08 2 2 0 0 0 2-1.63 12.37 12.37 0 0 0 0-2.12 8.15 8.15 0 0 1 2.75-7c1.19-1.17 2.47-2.25 3.57-3.5a11.1 11.1 0 0 0 2.53-10.64c-.71-2.76-1.49-5.51-2.27-8.25a11.83 11.83 0 0 0-.73-2 1.48 1.48 0 0 0-1.82-.72 2.82 2.82 0 0 0-1.58 1.22 3.29 3.29 0 0 0-.14 2.07c.65 2.78 1.34 5.55 2.16 8.28a7 7 0 0 1-1.61 7.28c-1.45 1.57-3 3-4.48 4.6-2.02 2.21-2.92 4.86-2.71 8.52zm-97.31 24.08h-.23v-3.58a8.2 8.2 0 0 0-.28-1.4 2.52 2.52 0 0 0-2.24-1.39c-.85.1-1.19.73-1.45 1.38A3.62 3.62 0 0 0 783 588c.18 5.76-1 11.41-1.4 17.11a31.81 31.81 0 0 1-3 11c-.78 1.73-1.8 3.36-2.67 5.06a4.19 4.19 0 0 0-.66 2 3.06 3.06 0 0 0 1 1.71 1.46 1.46 0 0 0 1.31.15 4 4 0 0 0 1.66-1.25c2.93-4.41 5.32-9.12 6.13-14.37.85-5.96 1.34-11.91 2.01-17.84zm-11.71-50.86c-1.62-.25-2.78-.51-4-.59-.76-.05-1.22.54-1.54 1.21a1.58 1.58 0 0 0 .36 1.94 5.8 5.8 0 0 0 2.46 1.3 21.55 21.55 0 0 0 9.89 0c3.2-.89 6.46-1.58 9.62-2.6a85.38 85.38 0 0 1 9.53-2.93 8.58 8.58 0 0 0 1.92-.9 1.81 1.81 0 0 0 .47-1.92c-.23-.37-.53-.84-.9-1a6.17 6.17 0 0 0-2.08-.29c-2.92.05-5.57 1.21-8.23 2.19a95.53 95.53 0 0 1-10.25 3 24 24 0 0 1-7.27.59zm-27.2 106c-.3 3.67.61 7.17 1.64 10.61 1.17 3.9 2.42 7.79 4.81 11.16a6.06 6.06 0 0 0 2.06 1.89 3 3 0 0 0 2-.25 1.65 1.65 0 0 0 .66-1.86c-.43-.85-.87-1.7-1.33-2.54-3.49-6.41-5.79-13.13-5.43-20.56a7.68 7.68 0 0 0-.27-2.83 2.63 2.63 0 0 0-1.51-1.31 1.5 1.5 0 0 0-1.76.83 3.7 3.7 0 0 0-.55 1.29c-.2 1.19-.25 2.38-.34 3.58zm54.07-98.26c1.56-.14 2.76-.16 3.92-.39a45.4 45.4 0 0 0 4.83-1.22 116.73 116.73 0 0 1 15.16-3.92 5.4 5.4 0 0 0 1.37-.39 1.75 1.75 0 0 0 1.24-1.54 2 2 0 0 0-1.66-2 14.85 14.85 0 0 0-2.82-.06 61.79 61.79 0 0 0-11.73 2.92c-4.07 1.33-8.18 2.5-12.55 2.16a4.92 4.92 0 0 0-1.33.37c-.45.11-1.09 1.35-.83 1.77.37.59.74 1.39 1.31 1.6a16.15 16.15 0 0 0 3.07.71zm51.67-10.27c-.09-.45 0-1-.29-1.32a9.93 9.93 0 0 0-2.15-1.86c-4.71-2.86-9.92-4.53-15.11-6.23a24 24 0 0 0-4.17-.9 4.4 4.4 0 0 0-2 .31 1.54 1.54 0 0 0-.77 1 1.71 1.71 0 0 0 .26 1.3 4.49 4.49 0 0 0 1.65 1.27 51.19 51.19 0 0 0 5.38 1.86 55.17 55.17 0 0 1 13.14 5.39 9.72 9.72 0 0 0 2 .7 1.92 1.92 0 0 0 2.04-1.51zm-254.61-50.73c.07-.69-1.35-1.86-2-1.64a5.9 5.9 0 0 0-2 .81c-2 1.68-4 3.39-5.94 5.21-3.28 3.15-6.5 6.36-9.69 9.61a1.69 1.69 0 0 0-.11 2c.42.76 1.89 1.33 2.47.89 1.32-1 2.66-2 3.88-3.17q6.08-5.6 12.07-11.3a8.43 8.43 0 0 0 1.22-1.72 1.81 1.81 0 0 0 .1-.69zm246.23 175.62a13.5 13.5 0 0 0-1.91-.87 3.53 3.53 0 0 0-4.33 2.72 3.6 3.6 0 0 0 1.94 4.18 10.26 10.26 0 0 0 3.49.6 5.66 5.66 0 0 0 5.64-6.13 49.3 49.3 0 0 0-.79-6.41 2.16 2.16 0 0 0-1.56-1.24 2.4 2.4 0 0 0-1.79.85 3.66 3.66 0 0 0-.67 2c-.09 1.41-.02 2.84-.02 4.3zM858 541.17a1.77 1.77 0 0 0-1.39 2.07 3.82 3.82 0 0 0 1.07 1.76 63.38 63.38 0 0 1 11.41 9.58 2.74 2.74 0 0 0 1.21.68c.43.11 1.1.21 1.35 0a3.88 3.88 0 0 0 1-1.72 1.74 1.74 0 0 0-.37-1.32 38.34 38.34 0 0 0-12.93-10.89 4 4 0 0 0-1.35-.16zm-53 254.48c.35-.05 2.21-.25 4.05-.61a1.42 1.42 0 0 0 1-1.64 2.26 2.26 0 0 0-1.11-1.58 9.45 9.45 0 0 0-3.46-.45c-3.61.25-7.08.12-10.23-2a2 2 0 0 0-2.53.58 2.13 2.13 0 0 0 .72 3c.58.41 1.14.85 1.75 1.2 2.61 1.53 5.44 1.68 9.81 1.5zM462.63 532a5.89 5.89 0 0 0 4.59-1.46 56.11 56.11 0 0 0 5.62-5.33 2 2 0 0 0-.06-1.9 3 3 0 0 0-1.8-.84 2.17 2.17 0 0 0-1.31.4 8 8 0 0 0-1.7 1.25 15.77 15.77 0 0 1-6.36 4.33 2 2 0 0 0-.83 1.73c.07.58.74 1.1 1.2 1.6.12.11.42.12.65.22zm447 55.45a16.31 16.31 0 0 0-9.07 2.86 1.4 1.4 0 0 0-.41 1.89 5.08 5.08 0 0 0 1.56 1.26.89.89 0 0 0 .68.05 40 40 0 0 1 9.76-2c.77-.05 1.2-1.56.8-2.37-.63-1.3-1.75-1.57-3.34-1.72zM792.35 642.5a28 28 0 0 0-1-4.14 9 9 0 0 0-2-2.79 1.33 1.33 0 0 0-1.29-.07c-.53.36-1.33 1-1.27 1.45.52 3.23 1.2 6.44 1.91 9.64a1.4 1.4 0 0 0 1 .89 2.87 2.87 0 0 0 1.95-.38c.85-.82 1.13-1.99.7-4.6zm53-11c0-2.85-.12-5.22-1.75-7.23a1.88 1.88 0 0 0-1.89-.66 1.79 1.79 0 0 0-1.29 1.5q.38 3.91.8 7.81c0 .22.21.42.28.64a2 2 0 0 0 1.81.88 2 2 0 0 0 1.16-.68 16.22 16.22 0 0 0 .83-2.23zm-22-40.09c-.39-.31-.91-1.05-1.39-1-3.74.18-6.15 2.28-7.37 5.71a2.54 2.54 0 0 0 .6 1.88 1.35 1.35 0 0 0 1.9.27c2.09-1.9 4.08-3.91 6.08-5.9.12-.12.07-.43.16-.94zm-268.24 34c.45-.09 1 0 1.33-.29a8.69 8.69 0 0 0 3.24-6.84c0-.54-.7-1.15-1.19-1.6s-1.59-.09-1.92.36a24.5 24.5 0 0 0-3.12 6.34c-.23.62.9 2 1.64 2.05zm295.15-35.16c-.05-.23 0-.51-.17-.68-1.64-2-5.66-2.92-7.58-1.64a2.65 2.65 0 0 0-.69 1.8 1.42 1.42 0 0 0 .64 1.17 17.35 17.35 0 0 0 6.07 1.3c.7.03 1.72-1.14 1.71-1.94zM789.74 765a2.17 2.17 0 0 0 0-.72 6.37 6.37 0 0 0-3.71-3.93 1.53 1.53 0 0 0-1.83.66c-.25.37-.6.88-.51 1.22a6.32 6.32 0 0 0 3.42 4.22c.48.23 1.32-.09 1.9-.37.34-.14.51-.71.73-1.08zm72.7-151.73c.62-.14 1.21-.09 1.43-.35a17.06 17.06 0 0 0 2.64-5.6 2.09 2.09 0 0 0-.12-1.35 1.69 1.69 0 0 0-.87-.92 1.37 1.37 0 0 0-1.22.28 13.84 13.84 0 0 0-2.71 6.32c-.06.54.56 1.14.84 1.65zM610 480.46a2 2 0 0 0-1.76-1.87 5.76 5.76 0 0 0-4.71 2.71 1.44 1.44 0 0 0 0 1.33c.4.51 1 1.16 1.58 1.16a5.9 5.9 0 0 0 4.76-2.64c.18-.15.13-.46.13-.69zm195 44.56c.16-1.41-.91-2.37-2.64-2.36-1.17 0-2.43 1-2.27 2a2.49 2.49 0 0 0 1 1.67 2.9 2.9 0 0 0 3.22-.2 3.83 3.83 0 0 0 .76-1.13zm62.34 88.81c-.26.53-.83 1.14-.76 1.66a3.05 3.05 0 0 0 2.89 2.6 1.55 1.55 0 0 0 1.17-.57 1.49 1.49 0 0 0 .19-1.26c-.54-1.42-1.83-2.03-3.42-2.43zm15.19-22c1.48-.18 1.71-.25 3-1.53.28-.27.54-1 .39-1.21-.41-.48-1.09-1.12-1.57-1a3.66 3.66 0 0 0-2.88 1.81 1.61 1.61 0 0 0-.1 1.29c.29.26.84.39 1.24.61zM653.61 518a2.61 2.61 0 0 0-2.54 1.87 1.74 1.74 0 0 0 .32 1.86 1.85 1.85 0 0 0 1.86.58 2.38 2.38 0 0 0 1.5-3.7c-.22-.33-.75-.43-1.14-.61zm200 67.67a2.09 2.09 0 0 0-2.37-2 1.89 1.89 0 0 0-1.54 2.07 2.19 2.19 0 0 0 2 1.67 1.8 1.8 0 0 0 1.93-1.76zm-44.22 12.23c-.18-.43-.25-1-.56-1.24a1.36 1.36 0 0 0-1.22 0 3.42 3.42 0 0 0-1.85 2.81 1.6 1.6 0 0 0 .62 1.19 1.56 1.56 0 0 0 1.27.09 3.07 3.07 0 0 0 1.74-2.85zm83.28-22.42c-.39.16-.92.2-1.15.49a2.65 2.65 0 0 0-.37 3.16c.28.53.59.7 1.13.43a2.63 2.63 0 0 0 1.43-3.35c-.12-.33-.71-.49-1.04-.73zm5.27 27.38a1.05 1.05 0 0 0-1.34-1.06c-.72.23-1.2.93-.89 1.49a1.69 1.69 0 0 0 1 .73c.66.19 1.22-.38 1.23-1.16z"/><path class="a" d="M323.08 550.5c-.92-3.09-3.08-5.37-5.13-7.71-1.89-2.17-3.9-4.24-5.83-6.37a30.36 30.36 0 0 1-4.95-7 2.87 2.87 0 0 1-.06-2.74c1.91-3.6 3.86-7.18 5.7-10.81a7.17 7.17 0 0 0 .55-2.75 1.49 1.49 0 0 0-.68-1.15 1.39 1.39 0 0 0-1.31.09 35.15 35.15 0 0 0-3.06 3.93c-1.51 2.34-3.38 2.79-6.12 1.09a2.18 2.18 0 0 1-1-2.45c1.65-3.73 3.38-7.42 5-11.18.83-2 1.44-4.08.55-6.27a1.09 1.09 0 0 1 .08-.71c.08-.21.25-.54.4-.55.41 0 1-.06 1.21.17 1 1 1.92 2.13 2.87 3.21a17.28 17.28 0 0 0 11.1 6.07 22 22 0 0 1 2.79.65 1.27 1.27 0 0 1 .51 1.79c-.83 1.17-1.69 2.32-2.63 3.6l-2.6-1.41c-.91-.48-2 .57-2 1.42a7.06 7.06 0 0 0 .24 2.11 24.91 24.91 0 0 0 4.5 8.15 65.79 65.79 0 0 0 11.73 11.63 42.24 42.24 0 0 0 6.24 3.51c.31.16.89-.12 1.32-.26s.51-1.23 0-1.86c-.15-.18-.27-.4-.43-.57-.33-.35-.65-.7-1-1-3.34-3.06-4.9-7-5.74-11.35a3.68 3.68 0 0 1 1.07-3.91 4.47 4.47 0 0 0 1.89-2.95 2.78 2.78 0 0 0-.5-2c-.39-.4-1.26-.35-1.93-.42-.19 0-.41.21-.6.34a12.94 12.94 0 0 1-1.17.84c-1.49.8-4.24-.7-4.32-2.43s0-3.74 0-5.51a5.58 5.58 0 0 1 1.39-.78c4.74-.87 7.41-4.08 9.42-8.12a30.71 30.71 0 0 0 3.65-11.58 3.23 3.23 0 0 1 2.7-3c.94-.17 1.9-.3 2.85-.38a31.53 31.53 0 0 0 14.2-4.77c5.74-3.58 11.95-6.09 18.23-8.47a94.07 94.07 0 0 1 14.51-4.12c7.29-1.5 14.5-3.21 21.3-6.43a44.3 44.3 0 0 1 7.49-2.48 102.71 102.71 0 0 0 14.34-4.7 41.2 41.2 0 0 1 5.49-1.7 3.21 3.21 0 0 1 3.54 1.83 18.32 18.32 0 0 1 1.12 13.4c-1.44.52-2.77 1.06-4.13 1.48-2.06.62-4.21 1-6.22 1.76-9.67 3.62-19.6 6.34-29.55 9.06a73.54 73.54 0 0 0-20.46 8.7c-3 1.94-6.27 3.54-9.33 5.42-2.45 1.51-4.72 3.29-7.16 4.82-3 1.9-6.15 3.7-9.28 5.46-1.15.65-3.06-.26-3.54-1.53a5.57 5.57 0 0 1-.17-.7c-.11-.46-.19-.94-.33-1.39a1.67 1.67 0 0 0-1.58-1.19 2.25 2.25 0 0 0-2.11 1.59 8.22 8.22 0 0 0 .14 4.95 3 3 0 0 0 1.93 2 48.18 48.18 0 0 0 4.93 1 50.77 50.77 0 0 1 10.36 2.93c10.55 4.11 20.37 9.62 30.1 15.34a1.88 1.88 0 0 1 .45 2.54c-1 1.32-2.12 2.6-3.16 3.91-1.21 1.54-.72 3.59 1.07 4a51.36 51.36 0 0 0 8.42 1.84 56.15 56.15 0 0 1 14 3A26.37 26.37 0 0 0 435 540.9c4.06-.29 8.14-.67 12.21-.58 3.82.09 7.63.84 11.45 1.16a40.17 40.17 0 0 0 21-3.57c.87-.41 1.73-.83 2.61-1.2a3.65 3.65 0 0 1 3.43.35c.82.49 1.64 1 2.44 1.52A149.65 149.65 0 0 0 517.12 553c2.89 1.12 6 1.72 9 2.56a4.08 4.08 0 0 1 2.44 5.78 17.51 17.51 0 0 1-4.78 6.22 24.08 24.08 0 0 0-5.3 5.84c-.58 1 .15 2.8 1.24 2.83a2.92 2.92 0 0 0 1.94-.53c2.94-2.82 5.78-5.74 8.66-8.61.5-.5 1.05-1 1.82-1.64a50.78 50.78 0 0 1 6.24.06 12.78 12.78 0 0 0 6.09-.88c.59 2-.31 3.28-.75 4.56a15.56 15.56 0 0 0 .94 12.55c.54 1.07 1.17 2.1 1.63 3.21a1.74 1.74 0 0 1-.37 2 27.25 27.25 0 0 0-2.1 2 5.07 5.07 0 0 0-1.45 2.41c-.26 4.17-3.32 6.13-6.33 8.51a15.55 15.55 0 0 1-2.47-1 25.62 25.62 0 0 1-7.57-7.77c-1.87-2.78-3.49-5.73-5.28-8.57a29.43 29.43 0 0 0-2.51-3.48 3 3 0 0 0-3.25-1c-1.14.34-2.25.81-3.54 1.29-1.21-.55-2.49-1.19-3.8-1.73-3.76-1.56-7.46-3.33-11.33-4.58a115.79 115.79 0 0 1-27-13.33c-1.41-.91-2.82-1.83-4.3-2.61a4.43 4.43 0 0 0-2.09-.39 2.88 2.88 0 0 0-2.46 1.24 6.12 6.12 0 0 0-1 1.91c-1.2 5.43-3.6 10.39-5.88 15.42-4.07 9-8.25 17.84-13 26.46A170 170 0 0 1 428 621c-4.67 6.29-10.91 9.94-18.27 12a42.75 42.75 0 0 1-4.93 1 62.3 62.3 0 0 0-14.54 4 15 15 0 0 1-6.33 1.08 7.83 7.83 0 0 1-4.11-1.12c-.81-.52-1.68-.93-2.47-1.47a18 18 0 0 0-10.79-3.49c-1 0-1.36-.72-.69-2.06s.91-2.32-.16-3.23c-6.14-5.2-9.1-12.21-11.4-19.62-.92-3-1.83-6-2.79-8.93a126.59 126.59 0 0 1-5.92-44c.14-3.58.81-7.15 1.24-10.72 1-7.88 10.47-13.51 17.84-11.76a10.39 10.39 0 0 1 4.42 2.3 23.19 23.19 0 0 1 5.32 6.75c2.27 4.22 4.77 8.35 6.74 12.71 4.25 9.41 10.31 17.24 18.93 23 .14.09.16.37.23.56-.33 1.05-1.3 1.34-2.15 1.76-4.33 2.16-7 5.74-8.62 10.17a12.51 12.51 0 0 0-.8 2.75 41.67 41.67 0 0 0 3.33 21.78 1.87 1.87 0 0 0 1 1 4.22 4.22 0 0 0 2 .14c.31-.07.64-.73.69-1.15a5.86 5.86 0 0 0-.13-2.12c-.72-2.78-1.62-5.52-2.26-8.32a25.89 25.89 0 0 1-.54-9.3c.64-4.77 2.82-8.61 7.21-10.94a2 2 0 0 1 1.36-.22c.35.1.88.68.82.91a32.76 32.76 0 0 1-1.37 4 22 22 0 0 0-1.82 7.65 3.43 3.43 0 0 0 1 2.63c.45.46 1.54.83 1.94.5s.82-.6.93-1c.31-1.15.43-2.35.68-3.51a33.77 33.77 0 0 1 7.3-14.67 14.16 14.16 0 0 1 8.46-5.08c1.86-.35 3.69.69 3.69 2.39 0 4.31.1 8.64-.2 12.94a34.27 34.27 0 0 1-1.66 7 9 9 0 0 1-6.76 6.74 54.81 54.81 0 0 0-6.11 2.13 12.13 12.13 0 0 0-1.85 1.09 1.87 1.87 0 0 0-.42 2c.25.37.56.84.93.95a7.89 7.89 0 0 0 4.92-.17 7 7 0 0 0-1 1c-.82 1.27-.74 2.36.2 3.16.73.62 1.53 1.14 2.24 1.78a3.32 3.32 0 0 1 .78 1.17c1 2.45-.16 5.76-2.48 6.75-1.09.47-2.26.74-3.39 1.12a3.85 3.85 0 0 1-4.49-1.26c-1.25-1.44-2.56-2.83-3.87-4.21a2.1 2.1 0 0 0-2.61-.18 1.93 1.93 0 0 0-.43 2.55c1.45 1.9 2.9 3.8 4.42 5.63a6.05 6.05 0 0 0 5.74 2.14 21.3 21.3 0 0 0 7.48-2.36 7.16 7.16 0 0 0 2.22-1.75c2.87-3.74 3.38-11.67-2.43-14.27l-2.59-1.17c1.89-1.62 4.28-2.1 6.53-2.87a9.52 9.52 0 0 0 5.63-5.22 32.71 32.71 0 0 0 3.09-9.54 78.93 78.93 0 0 0 .43-15.79 6 6 0 0 0-.27-1.41c-.76-2.49-2.23-4.25-5-4.52a14 14 0 0 0-3.55 0 18.58 18.58 0 0 0-9.46 4.86c-1.06.95-2.09 1.94-3.21 2.8a1.6 1.6 0 0 1-1.37 0 1.28 1.28 0 0 1-.65-1 3.09 3.09 0 0 0-1.39-3.71c-7.73-4.91-13-11.87-16.92-20-2.27-4.75-4.84-9.37-7.33-14a29.3 29.3 0 0 0-5.66-7.39c-4-3.8-8.8-4.83-14-3.93A21 21 0 0 0 345 537a13.06 13.06 0 0 0-2.29 6 113.26 113.26 0 0 0-1.47 13.57c-.32 15.45 1.55 30.62 6.65 45.3 1.1 3.17 1.95 6.42 3 9.61 2.17 6.67 5 13 10.27 17.88a4.53 4.53 0 0 1 .78 1.2.55.55 0 0 1 0 .51 1 1 0 0 1-.62.32 8.47 8.47 0 0 1-4.63-1.79 42.4 42.4 0 0 1-4.45-3.63 10.58 10.58 0 0 0-7.85-2.93c-3.12.08-6.23.13-9.35.18a18.81 18.81 0 0 1-6.38-.87c-3.05-1-5.12-3.45-3.18-7.33a23.63 23.63 0 0 1 6.71-8.34c1.71-1.31 3.53-2.48 5.29-3.73.78-.55 1.55-1.12 2.3-1.7a1.82 1.82 0 0 0 .14-2.57A1.62 1.62 0 0 0 338 598a33.63 33.63 0 0 0-11.64 8.23 37.89 37.89 0 0 0-3.94 5.12c-2.47 3.66-3 7.51-.75 11.51a6.29 6.29 0 0 1 .55 1.3.69.69 0 0 1-.19.62 2.26 2.26 0 0 1-1.22.35 6.23 6.23 0 0 1-4.08-2.7 7.78 7.78 0 0 1-1.53-4.71c0-1.44.07-2.83-.93-4.09-1.73-2.17-1.27-4.53-.15-6.77a44.35 44.35 0 0 1 2.65-4.27c2-3.14 1.82-6.35.3-9.58a23.38 23.38 0 0 0-1.45-2.48c-.51-.81-1.09-1.58-1.6-2.39a10.8 10.8 0 0 1-1-10.29c1.07-2.67 2-5.4 2.88-8.13a9.74 9.74 0 0 0 .32-5.67 3.61 3.61 0 0 0-1.22-1.67 1.48 1.48 0 0 0-2 0 18.66 18.66 0 0 0-1.75 2.3c-2.15-1.58-3.18-4.21-5.55-5.58a6.42 6.42 0 0 0-6.16-.44 7.75 7.75 0 0 0-1.83 1.14 27.51 27.51 0 0 0-6.19 6.94c-6.34 10.59-9.62 22-8 34.35 1.26 9.8 3.65 19.31 9.75 27.46a32.53 32.53 0 0 1 2.78 5 1.29 1.29 0 0 1-.5 1.15 6.3 6.3 0 0 1-2 .59 20.72 20.72 0 0 0-10.3 4.78c-.92.77-1.83 1.56-2.76 2.31-1.18.95-2.31.86-3.06-.29-2.62-4-5.34-8-7.27-12.38l-3.16-7.25c-1.53-3.51-3-7.07-4.62-10.53A29.84 29.84 0 0 1 259 598.1c0-1-.09-1.91-.15-2.87a49.48 49.48 0 0 1 3.06-20.46c2.15-5.84 3.89-11.83 5.79-17.76a67.65 67.65 0 0 1 5.3-12.55 43.7 43.7 0 0 0 3-6.51 56.34 56.34 0 0 1 16.37-24.12c2.66-2.29 3.73-5.52 5.93-8 .18-.21.83-.07 1.24 0a.65.65 0 0 1 .33.55 11.33 11.33 0 0 1-.62 2.06c-.48 1.1-1.07 2.14-1.57 3.23-.4.87-.78 1.75-1.11 2.65a4.43 4.43 0 0 0 1.46 5.17c1.71 1.25 3.55 2.32 5.47 3.55-.37 1-.69 1.92-1 2.79a5.58 5.58 0 0 0 .41 4.86c1.49 2.45 3.05 4.87 4.73 7.2a28.12 28.12 0 0 0 3.37 3.74c6.33 6.11 10.69 13.53 14.14 21.5 1.51 3.51 2.56 7.22 3.72 10.88a7.42 7.42 0 0 1 .23 2.84c-.45 5-1.2 10-3.34 14.65-1.61 3.48-3.38 6.88-5.11 10.29-1.3 2.56-2.69 5.08-3.93 7.67a4.34 4.34 0 0 0-.1 2.08 1.72 1.72 0 0 0 2.23 1.09 4.75 4.75 0 0 0 1.6-1.34q3.67-6.59 7.2-13.27a55.76 55.76 0 0 0 6.09-24.93c.11-4.31-.23-8.62-.41-12.94a11.54 11.54 0 0 0-.41-2.11c-.47-2-1.65-2.54-3.69-1.69-.43.18-.86.53-1.28.53s-.74-.37-1-.66a.74.74 0 0 1 0-.68c.22-.39.46-1 .81-1.06 2.22-.64 2.26-2.19 1.77-4-.7-2.54-1.38-5.09-2.2-7.59-1.63-5-3.3-10-5.07-15a18 18 0 0 0-2.07-3.71 1.46 1.46 0 0 0-1.27-.28c-.36.09-.89.56-.88.87a16.41 16.41 0 0 0 .33 4.25c.9 3.23 2 6.39 3.05 9.59.79 2.51 1.56 5 2.23 7.57a4.83 4.83 0 0 1-.71 4.12zm75.42-22.1c-.14-.34-.23-1.18-.69-1.57a29.9 29.9 0 0 0-5.15-3.82c-4.86-2.53-9.78-5-14.82-7.15-4.82-2.06-9.8-3.78-14.76-5.49a29.94 29.94 0 0 1-14.79-10.82 12.83 12.83 0 0 0-2.38-2.63 2.58 2.58 0 0 0-2-.08 1.9 1.9 0 0 0-.82 2.42 30.94 30.94 0 0 0 15.7 14.05c5 2.16 10.25 3.92 15.41 5.81a83.61 83.61 0 0 1 19.8 9.94 18.43 18.43 0 0 0 2.51 1.34c.56.29 1.96-.88 1.98-1.99zm-45.15 31.51c-1.59.21-2.37 1.73-1.61 2.76a42.16 42.16 0 0 1 4.78 9.63 52 52 0 0 0 15.31 21.42 47.16 47.16 0 0 1 8.88 9.36 7.88 7.88 0 0 0 2.11 1.87 1.54 1.54 0 0 0 1.31-.06 2 2 0 0 0 .85-3 36.81 36.81 0 0 0-8.98-10.25c-7.63-5.89-12.68-13.63-16.17-22.49a37.47 37.47 0 0 0-1.91-4.65 22.56 22.56 0 0 0-3-4c-.37-.43-1.23-.5-1.58-.58zm59.54 9.57c.4-.22 1-.35 1.15-.69a41.26 41.26 0 0 0 2-4.56 60.07 60.07 0 0 1 7.07-14.73 42.54 42.54 0 0 0 2.69-5 2 2 0 0 0-1.1-2.34 2 2 0 0 0-2 .25 3.31 3.31 0 0 0-1 1c-1 1.61-1.87 3.33-3 4.88-3.76 5.33-5.78 11.42-7.76 17.53a6.44 6.44 0 0 0-.1 2.08 2 2 0 0 0 2.04 1.59zm-64.32-52.28c-.1-1.19-.2-3.58-.52-5.94a14.76 14.76 0 0 0-1.1-3.38 1.91 1.91 0 0 0-3-.55 2.65 2.65 0 0 0-.76 1.86A23.63 23.63 0 0 1 344 517a1.32 1.32 0 0 1-1.44 1.18c-.47 0-.94-.19-1.41-.18a1.94 1.94 0 0 0-1.77 2.95c1.73 2.85 3.51 5.65 4.23 9 .06.3.73.63 1.14.66a1.94 1.94 0 0 0 1.27-.46 3.21 3.21 0 0 0 .76-1.19c1.42-3.37 1.63-6.96 1.78-11.75zm38.07 22.11c-1.11 0-2.2 1.27-1.93 2a11.66 11.66 0 0 0 1.14 2.59 65.68 65.68 0 0 0 5.31 6.71 30.4 30.4 0 0 1 6.35 9.4 16.77 16.77 0 0 0 1.49 2.39 1.77 1.77 0 0 0 2.53.07 2.52 2.52 0 0 0 .65-1.87 25.22 25.22 0 0 0-5.26-10 97.7 97.7 0 0 1-8.65-10.43c-.39-.54-1.27-.67-1.64-.85zm-39.29-50.81c-.31.32-.77.6-.91 1a1.8 1.8 0 0 0 .1 1.33 8.28 8.28 0 0 0 5.73 3.89 2.68 2.68 0 0 0 2.8-1.73 1.62 1.62 0 0 0-.42-2 14.65 14.65 0 0 0-7.3-2.49zm-12.14 16.58a6.66 6.66 0 0 0-1.15 1.31 1.44 1.44 0 0 0 .51 1.86 28.84 28.84 0 0 0 4.34 2.17 1.4 1.4 0 0 0 1.76-.75 2.57 2.57 0 0 0 .14-1.93 5.88 5.88 0 0 0-5.6-2.66z"/><path class="a" d="M856 518.14a7.67 7.67 0 0 1-1.46 1.29 1.85 1.85 0 0 1-2.35-1c-.45-1.61-1-3.22-1.24-4.87-1.75-9.92-4-19.73-6.46-29.5a130.28 130.28 0 0 0-4.91-15.78c-2.09-5.35-3.7-10.89-5.63-16.3-.88-2.47-1.95-4.89-3.06-7.27-2.24-4.77-4.65-9.47-6.86-14.25a195.63 195.63 0 0 0-27.72-43.56c-5.06-6.08-10.09-12.19-15.21-18.22a76.34 76.34 0 0 0-6-6.24c-4.9-4.59-9.87-9.1-14.85-13.6A125.68 125.68 0 0 0 746 337.92q-4.78-3.21-9.61-6.34a133.89 133.89 0 0 0-19.48-10.79q-4.61-2-9.09-4.33C695.46 310 682.4 305.33 669 301.39c-3.21-.95-6.52-1.57-9.79-2.3-4.91-1.1-9.81-2.25-14.75-3.21-8.94-1.74-17.87-3.57-26.87-4.92a134.78 134.78 0 0 0-15.79-.93c-5.75-.17-11.51.2-17.24-.59a13.86 13.86 0 0 0-2.87 0c-6.7.49-13.42.78-20.08 1.57a341 341 0 0 0-38.85 7.31c-2.1.5-4.21.94-6.31 1.42A138.87 138.87 0 0 0 494.7 307c-4.2 1.75-8.46 3.38-12.63 5.18-2.42 1-4.75 2.28-7.09 3.49-5.11 2.64-10.16 5.4-15.3 8-7.75 3.88-14.81 8.85-22 13.61a123.19 123.19 0 0 1-12.21 10.06A151 151 0 0 0 408.7 362c-1.85 1.88-3.73 3.73-5.71 5.48a107.86 107.86 0 0 0-15.83 17.63 89.39 89.39 0 0 1-7.61 9.55 37.9 37.9 0 0 0-4 5.08c-5.22 7.75-10.68 15.35-15.18 23.57-2.42 4.41-5.27 8.58-6.82 13.43a2.16 2.16 0 0 1-2.33 1.19 2.28 2.28 0 0 1-1.54-2.17 13.62 13.62 0 0 1 .15-1.42 6 6 0 0 1 .44-1.36c1.14-2.38 2.23-4.77 3.47-7.1 1.35-2.54 2.74-5.06 4.3-7.48 6.48-10.07 12.46-20.49 20.6-29.41a94.48 94.48 0 0 0 6.54-8.58A103 103 0 0 1 398.1 366c3.66-3.46 7.31-6.93 10.9-10.46a179.64 179.64 0 0 1 16-13.41c2.84-2.21 5.56-4.56 8.33-6.85a26.14 26.14 0 0 1 2.19-1.86c7.61-5 15-10.31 23.32-14.21a80 80 0 0 0 7.69-3.91c9.26-5.66 19.44-9.27 29.36-13.47a147 147 0 0 1 24-7.39c9.11-2.14 18.26-4 27.44-5.77a247.18 247.18 0 0 1 32.84-3.67 6.43 6.43 0 0 1 .72 0c11.73.69 23.5.33 35.22 1.29 1.43.12 2.86.34 4.27.59 12.52 2.17 25 4.29 37.38 7.41 3.48.88 7.08 1.31 10.55 2.23a236.56 236.56 0 0 1 33.14 11.86c8.58 3.69 16.85 8.1 25.24 12.23a50.26 50.26 0 0 1 5 2.83c6.45 4.15 12.91 8.3 19.28 12.57a123.74 123.74 0 0 1 17.76 14.6c3.77 3.69 7.79 7.12 11.56 10.81 2.22 2.17 4.2 4.6 6.21 7 4.2 4.93 8.32 9.93 12.52 14.85a209.53 209.53 0 0 1 23.92 35c2.2 4 4 8.18 6 12.29 1.24 2.6 2.29 5.3 3.69 7.8 4.5 8 7.39 16.62 10.09 25.32.29.92.55 1.84.88 2.74 6.09 16.25 9.15 33.24 12.45 50.18a9.3 9.3 0 0 1-.05 1.54zM586.07 820.37c-5-.32-10-.55-15-1-7.17-.59-14.35-1.12-21.48-2a136.74 136.74 0 0 1-15.53-3 230.26 230.26 0 0 1-28.22-8.51c-9.83-3.84-19.64-7.73-29.31-11.92a147.1 147.1 0 0 1-20.2-11c-9.11-5.79-18.4-11.29-27.71-16.74a82.21 82.21 0 0 1-9.45-6.55c-4.32-3.42-8.49-7-12.62-10.7-3.41-3-6.66-6.23-10-9.34a63.35 63.35 0 0 1-9.39-10.85 176.71 176.71 0 0 0-11.93-16.22 89.37 89.37 0 0 1-6.13-8.87c-2.25-3.4-4.33-6.91-6.66-10.26a114.78 114.78 0 0 1-11.7-22.23c-3.9-9.54-8-19-12-28.51-.73-1.75-1.85-3.43-1.69-5.42 0-.58.7-1.16 1.18-1.63a1.63 1.63 0 0 1 1.93.29 16.08 16.08 0 0 1 1.47 2.41c4.22 9.93 8.49 19.83 12.58 29.82a119.4 119.4 0 0 0 12.73 24.12c1.94 2.74 3.67 5.62 5.48 8.45a135.44 135.44 0 0 0 9.25 12.83 146.52 146.52 0 0 1 9.22 12.86 56.7 56.7 0 0 0 9 10.27c3 2.79 6 5.51 8.91 8.38a141.58 141.58 0 0 0 12.05 10.25 154.69 154.69 0 0 0 18 11.86c6 3.53 11.89 7.21 17.84 10.82q4.31 2.61 8.64 5.18A171 171 0 0 0 490 794.83c5.57 2.2 11.08 4.6 16.7 6.66a218.29 218.29 0 0 0 40.9 11.06 208.17 208.17 0 0 0 25 2.45c2.15.08 4.32.16 6.45.45a53.26 53.26 0 0 0 12.2.15c7.16-.69 14.32-1.29 21.53-1.55a120.56 120.56 0 0 0 26.22-4.12c4.17-1.1 8.35-2.15 12.5-3.35 9.9-2.86 19.93-5.37 29.64-8.79 12.64-4.45 25.33-8.93 36.85-16.05a131.53 131.53 0 0 1 12-6.45c8.71-4.21 16.41-9.9 23.89-15.93 2.8-2.25 5.39-4.76 8.14-7.06a2 2 0 0 1 3.27 1 2.5 2.5 0 0 1-.36 2 25.38 25.38 0 0 1-3.49 3.6c-9.27 7.62-18.66 15-29.52 20.4-8.38 4.14-16.51 8.78-24.79 13.13a63.43 63.43 0 0 1-5.95 2.52c-4.23 1.69-8.42 3.49-12.71 5-5.42 1.91-10.92 3.63-16.41 5.33-4.81 1.49-9.62 3-14.49 4.23-9.74 2.53-19.35 5.64-29.31 7.23a147.83 147.83 0 0 1-16.43 1.83c-6.24.29-12.45.72-18.65 1.34-2.29.21-4.69.3-7.11.46zM336.26 463.48a28.65 28.65 0 0 1-12.53-2.31c-7.55-3.33-14.28-7.8-18.75-15a8.92 8.92 0 0 0-.92-1.08 1.82 1.82 0 0 0-2-.11 3.56 3.56 0 0 0-1 1.78 3.49 3.49 0 0 0 .63 2 29.83 29.83 0 0 0 3.34 4.64c6.47 6.65 14 11.53 23.18 13.64a32.51 32.51 0 0 0 10.71.57 14.47 14.47 0 0 0 3.44-.92 5.11 5.11 0 0 0 3.14-2.76c.56-1.31 1.14-2.62 1.77-3.9a.66.66 0 0 1 1.14.05 11 11 0 0 1 .9 12.15 5.59 5.59 0 0 1-2 2 12.27 12.27 0 0 1-3.27 1.42c-9.5 2.54-18.48 1.5-26.79-4A50 50 0 0 1 303.66 459c-2.21-3.13-4.43-6.25-6.49-9.47a13 13 0 0 1-2.19-7.47 5.23 5.23 0 0 1 2.74-4.71 18.25 18.25 0 0 1 2.62-1.13 1.42 1.42 0 0 1 2 1.22 25.43 25.43 0 0 0 0 2.83 1.41 1.41 0 0 0 .88 1c.65.11 1.7.17 2-.2a21.87 21.87 0 0 0 2.42-4.34 27.14 27.14 0 0 1 4.46-7.33 4.67 4.67 0 0 1 4.48-1.72q2.48.39 4.94.94a55.72 55.72 0 0 0 12.07 1.65 12.84 12.84 0 0 1 2.14.2c5.57.95 8.84 4.52 9.33 10.21a13.51 13.51 0 0 1 0 2.15 92.2 92.2 0 0 1-2.88 17.67 3.58 3.58 0 0 1-3.07 2.68c-1.34.22-2.77.3-2.85.3zm.32-3.06c.52-.06.76-.1 1-.1a2 2 0 0 0 1.93-1.76 2.36 2.36 0 0 0-1.66-2.07c-2.57-.56-5.14-1.19-7.73-1.65a21.6 21.6 0 0 1-9.68-4.48c-.94-.74-1.83-1.55-2.79-2.27a2 2 0 0 0-1.28-.51 4 4 0 0 0-1.83.84 1.38 1.38 0 0 0-.2 1.3 9.33 9.33 0 0 0 1.6 2.34c5.76 5.82 13.25 7.34 20.65 8.37zM303.87 657.19a5.94 5.94 0 0 0 .1 3.53c.74 2.52 1.55 5 2.19 7.57a3.37 3.37 0 0 1-.44 2c-.2.43-1.81-.41-2.29-1.25-.72-1.24-1.39-2.51-2.11-3.75-1.09-1.86-2.16-3.72-3.32-5.53a6.85 6.85 0 0 0-1.51-1.45.89.89 0 0 0-.7 0 .65.65 0 0 0-.41.41 6.52 6.52 0 0 0-.07 2.09c.67 2.79 1.48 5.54 2.15 8.33a9.54 9.54 0 0 1 0 2.11c0 .49-1.29 1.19-1.68.86a6.66 6.66 0 0 1-1.93-2c-1.61-3.73-3-7.53-4.6-11.28-.13-.32-.73-.46-1.12-.65a1.2 1.2 0 0 0-.32.55c-.06.94-.08 1.89-.11 2.84 0 1.67-.06 3.35-.12 5a1.69 1.69 0 0 1-1.07 1.63 1.35 1.35 0 0 1-1.6-1c-.4-1.62-.83-3.24-1.15-4.88-.69-3.52-1.29-7.05-2-10.58a6.67 6.67 0 0 1 1.74-6c3.71-4 8-6.64 13.88-6a21.58 21.58 0 0 1 9.41 3.06 46.63 46.63 0 0 1 8.39 6.61.73.73 0 0 1 .11.65.91.91 0 0 1-.55.43 4.48 4.48 0 0 1-3.43-.54c-1.67-.92-3.28-2-4.93-2.93a1.5 1.5 0 0 0-1.93.34 1.79 1.79 0 0 0-.16 2c2 4.14 4.87 7.66 7.3 11.5.89 1.4 1.6 2.91 2.36 4.38a.62.62 0 0 1-.21.57 2.51 2.51 0 0 1-1.26.42 2.23 2.23 0 0 1-1.24-.64c-1-1-2-2.08-2.93-3.15-1.59-1.79-3.15-3.6-4.7-5.39.09.46 0 .51-.2.15z"/><path class="a" d="M304.69 467.6c2.52 1.22 4.33 3.54 6.7 5.1s4.69 3.24 7.2 5c-.19 1-.39 1.89-.54 2.8a3.25 3.25 0 0 0 1.79 3.6 24.2 24.2 0 0 0 5.31 2.08c2.17.53 5.15.35 6.69-2.79a12.74 12.74 0 0 1 1.15-1.67 9.87 9.87 0 0 1 1.48-.38c5.14-.46 5.74.29 5 5.66-.54 4.11-2.57 7.68-4.86 11.06a5.79 5.79 0 0 1-2.21 1.75c-5.29 2.62-13.51 2.15-18.28-3.7a29 29 0 0 1-4.85-8.73 3.15 3.15 0 0 0-3.17-2.32c-4.44-.24-6.75-3.08-8.08-7-.65-1.9.46-3.35 2.4-3.21.23 0 .44.19.67.25a3.4 3.4 0 0 0 .7.06c.91 0 2-.91 1.87-1.73a6.82 6.82 0 0 0-.45-2.07c-.73-1.65.03-2.7 1.48-3.76zm24 21.24c-2.31.13-4.45.2-6.57.41a3.36 3.36 0 0 0-2.8 1.93 2.46 2.46 0 0 0-.17 1.35 1.36 1.36 0 0 0 1.42 1.26c3.56-.21 7.11-.45 10.66-.78a6 6 0 0 0 1.92-.87 2.12 2.12 0 0 0 .48-1.93c-.22-.37-.54-.88-.88-.94-1.38-.27-2.75-.27-4.05-.43zm-.91 7.42c-.18-.37-.26-.91-.56-1.08a3.29 3.29 0 0 0-3.8.18 1.21 1.21 0 0 0-.25 1.13 2.63 2.63 0 0 0 4.46.41 1.76 1.76 0 0 0 .16-.64zm-25.13-18.33a8 8 0 0 0-.66 1.73c0 .15.68.61 1 .58a1.16 1.16 0 0 0 .93-1.53c-.14-.31-.68-.44-1.27-.78zM471.28 447c-1.18 0-2.37-.07-3.54 0a1.3 1.3 0 0 0-.87.92 1.34 1.34 0 0 0 .82 1 9.41 9.41 0 0 0 2.79.45c1.67 0 3.33-.28 5-.4a9.75 9.75 0 0 1 2.14 0 1.66 1.66 0 0 1 1.55 1.18 2.13 2.13 0 0 1-1.13 2.35 14.72 14.72 0 0 1-3.42.87c-1.9.12-3.82 0-5.73 0a26.9 26.9 0 0 0-7.09.8c-2.51.66-4.53 1.59-4.34 4.71 0 .31-.54.68-.87 1s-1.42-.36-1.47-1.12a32.05 32.05 0 0 0-2.27-9.72 2.36 2.36 0 0 1 1.28-3q7-3.56 14.06-7.08a30.16 30.16 0 0 1 9.62-2.68c3.78-.5 7.62-.5 11.43-.67a2 2 0 0 1 1.33.42c.49.46 1.11 1.1 1.11 1.66a2 2 0 0 1-1.13 1.56 40.46 40.46 0 0 1-5.64.76c-4.73.35-8.83 1.89-11.9 5.69a9.32 9.32 0 0 1-1.73 1.3zM449 518.75c.25-.37.4-.92.74-1.08a8.78 8.78 0 0 1 8.76.32 1.32 1.32 0 0 1 .57 1.06 1.78 1.78 0 0 1-.84 1.06 5.44 5.44 0 0 1-2 .68 9.18 9.18 0 0 1-7.23-2.04zM802.07 714.69a5 5 0 0 1-3.41 4.71 2.92 2.92 0 0 1-1.89-.44 1.46 1.46 0 0 1-.66-1.8 6.31 6.31 0 0 1 4.22-4.2c.32-.1.87.22 1.15.5a4.22 4.22 0 0 1 .59 1.23zM299.52 464c-2.1.35-3.71.67-5.34.88a2.75 2.75 0 0 1-2.53-2.11 1.72 1.72 0 0 1 .23-1.31c.22-.32.87-.72 1.11-.61 2.07.97 4.44 1.36 6.53 3.15zM330.45 520.87c-.12.24-.2.6-.34.62a1.91 1.91 0 0 1-1.22 0 9.21 9.21 0 0 1-3.09-3.89 1.34 1.34 0 0 1 .43-1.19 1.45 1.45 0 0 1 1.28-.11 5.56 5.56 0 0 1 2.94 4.57z"/><path class="a" d="M322.7 480.68c.25-.34.59-1 .74-1 1.35.35 2.67.81 4 1.28a.6.6 0 0 1 .17.56c-.21.38-.49 1-.79 1a5.82 5.82 0 0 1-3.91-1.27c-.14-.06-.14-.36-.21-.57zM294.07 453.91a3.08 3.08 0 0 1 1.93 3.19.75.75 0 0 1-.5.45 2.61 2.61 0 0 1-2.8-1.65 1.56 1.56 0 0 1 .69-1.79 2.26 2.26 0 0 1 .68-.2zM297 469.17c.13-.17.24-.46.41-.5.55-.14.9.13.87.68a.68.68 0 0 1-.4.49c-.53.16-.88-.11-.88-.67zM879.59 549.54l-1.59 1.58.17.12a1.7 1.7 0 0 1 1.51-1.5zM322.9 550.35l.47-.06c-.16-.39-.26-.32-.3.2z"/><path class="b" d="M117.75 894.38h14.5v71.5h-14.5zM381.08 894.38h14.5v71.75h-14.5zM637.84 894.38h14.5v71.75h-14.5zM274.63 908h20.85c.06 0 2 0 2 1.86v56.26h14.37V910s0-2 1.75-2H334v-14.5h-59.37zM459.5 950.07v-55.69h-14.08v71.75h50.67V952h-35.15c-1.31 0-1.44-1.93-1.44-1.93zM556.25 950.07v-55.69h-14.08v71.75h50.67V952h-35.15c-1.31 0-1.44-1.93-1.44-1.93zM749.34 936.25c0 .44 0 1-1.15 1a1.75 1.75 0 0 1-1.56-.75l-27.38-42.12h-15.16v71.81h14.5v-40.94c0-1.54.87-1.87 1.54-1.87a2.17 2.17 0 0 1 1.29.67l27.46 42.15h15v-71.82h-14.5zM847 923.21v14.5h19.13a1.85 1.85 0 0 1 1.94 1.92c0 1.06-.69 2.5-2.12 4.38s-2.37 3.38-4.19 4.5-7.37 3.94-11.94 3.94a31.69 31.69 0 0 1-11.56-2.62c-1.12-.69-2.5-1.44-3.31-1.87a23 23 0 0 1-3.81-3.25c-1.06-1.12-6.31-5.37-6.31-14.87 0-5.87 2.56-11.31 3.56-12.31s2.19-2.87 3.13-3.62 6-4.81 9.81-5.87a29.51 29.51 0 0 1 8.81-1.19c2.56 0 10.88.81 23.63 8.44.5.31.75.31.75-.09v-14.95a41.06 41.06 0 0 0-24.44-7.75 36.75 36.75 0 0 0-13.81 2.19 59.16 59.16 0 0 0-6.94 3.31 47.08 47.08 0 0 0-6.25 3.88c-1 .94-3.19 3.75-4.37 5.13a32 32 0 0 0-6.19 9.94c-2.56 6.06-1.94 11-1.94 13.25s.5 11.31 4.88 18.06 16.56 18 30.44 18 19.44-2.94 22.63-4.94 14.75-10.6 14.75-26.44c.08-11.25 0-11.25 0-11.25zM1056.59 944.8a42.56 42.56 0 0 1-24.25 8.83 32.76 32.76 0 0 1-11-2.42 33.54 33.54 0 0 0-3.08-2c-5.92-4.25-10.17-8.42-10.17-18.27s5.25-14.31 6.83-15.81 6.58-7.08 18.25-7.08 23.46 10 23.92 10.37.48 0 .48 0v-16.79c-10.31-7.12-19.06-7.75-23.81-7.75s-10.81.69-15.12 2.38a42.48 42.48 0 0 0-9.87 5.38c-5.25 3.63-10.88 11.88-12.38 14.88s-5.12 15.88-.62 27 14.25 17.56 18.5 19.69a41.72 41.72 0 0 0 19.38 4.81c8.81 0 11.5-1.25 14.88-2.44s9.25-6.27 9.25-6.27v-14.68c-.03-.83-.53-.34-1.19.17zM1103.88 950.38h53.37v14.38h-53.37zM1129.81 940.88c15.15 0 27.44-10.83 27.44-24.19s-12.25-24.19-27.44-24.19-27.44 10.83-27.44 24.19 12.29 24.19 27.44 24.19zm-.31-36.62c9.56 0 14.88 5.85 14.88 13.06s-6.66 13.06-14.87 13.06-14.87-5.85-14.87-13.06 6.65-13.07 14.86-13.07zM222.67 927.29c-15.42-7.83-24-9.58-24-14.75s7.67-6.08 12.42-6.08 13.17 2.17 26.17 10.75v-15.66a58.46 58.46 0 0 0-28.26-7.84c-15.83 0-24.58 9.75-24.58 19s5.17 13.83 16.17 20.25c7.33 4.33 24.08 6.42 23.17 13 0 7.33-20.83 10.92-41.94-4.27v16.63s12.44 8.31 28.44 8.19c8.75 0 23.25-2.87 26.25-13 3.49-9.3 1.58-18.38-13.84-26.22zM57.83 904a47.09 47.09 0 0 0-14.71-7.25c-14.25-3-30-2.37-30-2.37H0v71.5h14.17c18.44 0 31.45-1.17 44-10.62 14.75-9.37 14.62-23.12 14.62-25.75s0-4.54-2.17-10.79-8.18-11.53-12.79-14.72zm-16 44.12c-8 2.88-20.62 3.38-22.87 3.38h-3.33c-1.5 0-1.46-2.17-1.46-2.17v-39a2.16 2.16 0 0 1 2.12-2.13 102.47 102.47 0 0 1 23.46 2.55c12.37 3.13 18.5 11.25 18.5 19.38s-8.37 15.12-16.37 18zM2.5 576.63s39.12 30.13 40 30.88 2 1.38 1.87 2.75a3.06 3.06 0 0 1-1.58 2.74L1.63 644l-.08 2-.08 28.58 160.75.83.08-29.08-106.08-.59a2.49 2.49 0 0 1-2.58-2.17c0-1 0-2.33.75-2.83s39.83-30.17 39.83-30.17S54 579.5 53 578.67s-1.5-.83-1.5-3a2.61 2.61 0 0 1 2.25-2.5l108.92.58v-28.92l-160.13-1zM161.44 416.72c-.9 2.14-3.78 1.08-3.8 1.08l-33.9-14.33c-2.06-1-1.28-3.53-1-4.31l15.85-37.41L111.88 350 96 387.94a3.39 3.39 0 0 1-4.8 1.77l-22-9.54c-2.05-.89-1.36-3.07-1.13-3.64l24.32-58-26.76-10.78L28.88 395l147.5 62.25 36.5-87.75-26.75-11.5zM1163 577.38h-160.1l.48 95 29.12.2-.08-63.7c0-2.33 3.07-2.47 3.08-2.47h36.8c2.3.17 2.55 2.76 2.57 3.59l-.06 40.63 29.21.43-.13-41.12v-.05a3.4 3.4 0 0 1 3.74-3.49l24 .24c2.24 0 2.45 2.3 2.46 2.92l.13 62.89 28.86-.42zM182.29 155l67.5 153.5 22.83-19.83-9.57-21.88a3.07 3.07 0 0 1 .3-3.41l39.78-34.91a3.39 3.39 0 0 1 4-.46l20.46 12.49 22.83-20-143-87.5zM228 182c1.82-1.14 3.27-.27 4.63.56l43.55 26.57c.94.92 1.85 2.41.51 4.16l-23.21 20.23c-2.65 1.93-4.41.51-5.3-.65L228 186.73l-.29-.66c-.38-1.07-1-3.23.29-4.07zM461.63 7.67l25.63 93.22c.28 1 .75 2.78-1 3.86s-4.13-1.29-4.13-1.29L402 24.17l-28.67 8.17 42.67 154 27.67-7.67-24.29-88.49c-.4-1.46-.8-3 1.08-4.1s4.54 1.55 4.54 1.55L500.63 163l31.67-8.33L489.29 0zM775.09 72.45c-3.41 1.39-4.41-1.65-4.41-1.65l-14.55-50.3-28-11-58.25 149.75 27 10.75 37.93-98.15c.17-.42 1.16-2.67 3.19-2.66 2.22 0 2.66 1.47 3.08 3l13.3 46.81 45.69-27.37s1.9-1.11 3.12.43a4.16 4.16 0 0 1 .37 3.74L764.38 196l27.13 10.5 58-149.25L819 45.5zM986.5 291.5c2.63-2.25 64.5-57.25 64.5-57.25l-19.25-21.5S964 272.75 961.5 275s-25.12 22.25-45.12 4.75c-22.75-21.25 9.25-48.75 25.5-63s52.25-46.5 52.25-46.5l-18.75-21.5s-65.83 58.58-70 62.42-16 17.83-20.67 27.33-5 15.88-4.58 28.75 9 29.75 25 40.5 38.63 7.13 41.5 6.5 15.38-4.87 17.63-5.75 12.25-8.25 13.63-9.25 5.99-5.5 8.61-7.75zM1008.26 433.25a3.26 3.26 0 0 1 2.38-4.1l121.73-38.65-8.5-27.75L971.38 411l28 89.5 27.25-8.75z"/><path class="a" d="M878.94 609.91c-1.1.11-2.19.3-3.29.3-.29 0-.68-.49-.86-.84s.09-.85.65-.91a2.91 2.91 0 0 1 2.56.54c.33.31.62.65.94 1-.01 0 0-.09 0-.09z"/></svg>